<?xml version="1.0" encoding="utf-8"?>
<!-- Generator: Adobe Illustrator 21.0.0, SVG Export Plug-In . SVG Version: 6.00 Build 0)  -->
<svg version="1.1" id="Layer_1" xmlns="http://www.w3.org/2000/svg" xmlns:xlink="http://www.w3.org/1999/xlink" x="0px" y="0px"
	 viewBox="0 0 21 20" style="enable-background:new 0 0 21 20;" xml:space="preserve">
<style type="text/css">
	.st0{stroke:#000000;stroke-width:0.8;stroke-miterlimit:10;}
</style>
<g>
	<path class="st0" d="M11.9,1.2v1.2H7.7c-0.2,0-0.3,0.1-0.3,0.3v6C7.4,8.8,7.5,9,7.7,9h4.2v1.8H5c-0.2,0-0.3,0.1-0.3,0.3v6
		c0,0.2,0.1,0.3,0.3,0.3h6.9v1.2c0,0.2,0.1,0.3,0.3,0.3s0.3-0.1,0.3-0.3v-1.2h6.9c0.2,0,0.3-0.1,0.3-0.3v-6c0-0.2-0.1-0.3-0.3-0.3
		h-6.9V9h4.2C16.9,9,17,8.8,17,8.7v-6c0-0.2-0.1-0.3-0.3-0.3h-4.2V1.2c0-0.2-0.1-0.3-0.3-0.3C12,0.9,11.9,1,11.9,1.2z M19.1,11.4
		v5.4H5.3v-5.4H19.1z M16.4,3v5.4H8V3H16.4z"/>
</g>
</svg>
