<?xml version="1.0" encoding="utf-8"?>
<!-- Generator: Adobe Illustrator 23.0.3, SVG Export Plug-In . SVG Version: 6.00 Build 0)  -->
<svg version="1.1" id="Layer_1" xmlns="http://www.w3.org/2000/svg" xmlns:xlink="http://www.w3.org/1999/xlink" x="0px" y="0px"
	 viewBox="0 0 20.8 20" style="enable-background:new 0 0 20.8 20;" xml:space="preserve">
<g>
	<path d="M18.3,13.2V5.7c0-0.3-0.2-0.6-0.6-0.6H9.4C9,5,8.7,5.2,8.7,5.7v7.5C8.7,13.6,9,14,9.4,14h8.2C18,14,18.3,13.6,18.3,13.2z
		 M10.1,12.6V6.4h6.8v6.1H10.1z"/>
	<path d="M20.7,19.1V0.8c0-0.3-0.3-0.6-0.6-0.6c-0.3,0-0.6,0.2-0.6,0.6v18.3c0,0.4,0.3,0.8,0.6,0.8C20.4,19.9,20.7,19.6,20.7,19.1z"
		/>
</g>
</svg>
