<?xml version="1.0" encoding="utf-8"?>
<!-- Generator: Adobe Illustrator 23.0.3, SVG Export Plug-In . SVG Version: 6.00 Build 0)  -->
<svg version="1.1" id="Layer_1" xmlns="http://www.w3.org/2000/svg" xmlns:xlink="http://www.w3.org/1999/xlink" x="0px" y="0px"
	 viewBox="0 0 20.8 20" style="enable-background:new 0 0 20.8 20;" xml:space="preserve">
<g>
	<path d="M6.7,17.4h7.4c0.3,0,0.6-0.2,0.6-0.6V3.4c0-0.4-0.2-0.7-0.6-0.7H6.7C6.3,2.7,6,3,6,3.4v13.3C6,17.1,6.3,17.4,6.7,17.4z
		 M7.3,4h6v12h-6V4z"/>
	<path d="M1.4,19.8h18c0.3,0,0.6-0.3,0.6-0.6c0-0.3-0.2-0.6-0.6-0.6h-18c-0.4,0-0.7,0.3-0.7,0.6C0.7,19.5,1,19.8,1.4,19.8z"/>
	<path d="M1.4,1.4h18c0.3,0,0.6-0.3,0.6-0.6c0-0.3-0.2-0.6-0.6-0.6h-18C1,0.1,0.7,0.4,0.7,0.7C0.7,1.1,1,1.4,1.4,1.4z"/>
</g>
</svg>
