<?xml version="1.0" encoding="utf-8"?>
<!-- Generator: Adobe Illustrator 23.0.3, SVG Export Plug-In . SVG Version: 6.00 Build 0)  -->
<svg version="1.1" id="Layer_1" xmlns="http://www.w3.org/2000/svg" xmlns:xlink="http://www.w3.org/1999/xlink" x="0px" y="0px"
	 viewBox="0 0 20.8 20" style="enable-background:new 0 0 20.8 20;" xml:space="preserve">
<g>
	<path d="M18,13.8V6.2c0-0.3-0.2-0.7-0.7-0.7H3.6c-0.4,0-0.8,0.2-0.8,0.7v7.6c0,0.4,0.3,0.8,0.8,0.8h13.7C17.7,14.6,18,14.2,18,13.8
		z M4.3,13.2V7h12.3v6.2H4.3z"/>
	<path d="M20.5,19.2V0.7c0-0.3-0.3-0.7-0.7-0.7c-0.3,0-0.7,0.2-0.7,0.7v18.5c0,0.4,0.3,0.8,0.7,0.8C20.2,20,20.5,19.6,20.5,19.2z"/>
	<path d="M1.5,19.2V0.7c0-0.3-0.3-0.7-0.7-0.7c-0.3,0-0.7,0.2-0.7,0.7v18.5c0,0.4,0.3,0.8,0.7,0.8C1.2,20,1.5,19.6,1.5,19.2z"/>
</g>
</svg>
