<?xml version="1.0" encoding="utf-8"?>
<!-- Generator: Adobe Illustrator 23.0.3, SVG Export Plug-In . SVG Version: 6.00 Build 0)  -->
<svg version="1.1" id="Layer_1" xmlns="http://www.w3.org/2000/svg" xmlns:xlink="http://www.w3.org/1999/xlink" x="0px" y="0px"
	 viewBox="0 0 20.8 20" style="enable-background:new 0 0 20.8 20;" xml:space="preserve">
<g>
	<path d="M2.7,6.8v7.6c0,0.3,0.2,0.6,0.6,0.6h8.2c0.4,0,0.8-0.2,0.8-0.6V6.8c0-0.4-0.3-0.8-0.8-0.8H3.3C3,6.1,2.7,6.4,2.7,6.8z
		 M10.9,7.5v6.2H4.1V7.5H10.9z"/>
	<path d="M0.3,0.9v18.4c0,0.3,0.3,0.6,0.6,0.6c0.3,0,0.6-0.2,0.6-0.6V0.9c0-0.4-0.3-0.8-0.6-0.8C0.6,0.1,0.3,0.5,0.3,0.9z"/>
</g>
</svg>
