<?xml version="1.0" encoding="utf-8"?>
<!-- Generator: Adobe Illustrator 23.0.3, SVG Export Plug-In . SVG Version: 6.00 Build 0)  -->
<svg version="1.1" id="Layer_1" xmlns="http://www.w3.org/2000/svg" xmlns:xlink="http://www.w3.org/1999/xlink" x="0px" y="0px"
	 viewBox="0 0 20.8 20" style="enable-background:new 0 0 20.8 20;" xml:space="preserve">
<g>
	<path d="M14,2.6H6.1c-0.3,0-0.7,0.2-0.7,0.7v8.6c0,0.5,0.2,0.8,0.7,0.8H14c0.5,0,0.8-0.3,0.8-0.8V3.3C14.8,2.9,14.4,2.6,14,2.6z
		 M13.3,11.2H6.9V4.1h6.4V11.2z"/>
	<path d="M19.9,0.1H0.8c-0.3,0-0.7,0.3-0.7,0.7c0,0.3,0.2,0.7,0.7,0.7h19.1c0.5,0,0.8-0.3,0.8-0.7C20.7,0.5,20.4,0.1,19.9,0.1z"/>
</g>
</svg>
