<?xml version="1.0" encoding="utf-8"?>
<!-- Generator: Adobe Illustrator 23.0.3, SVG Export Plug-In . SVG Version: 6.00 Build 0)  -->
<svg version="1.1" id="Layer_1" xmlns="http://www.w3.org/2000/svg" xmlns:xlink="http://www.w3.org/1999/xlink" x="0px" y="0px"
	 viewBox="0 0 20.8 20" style="enable-background:new 0 0 20.8 20;" xml:space="preserve">
<g>
	<path d="M7,17.3h7.8c0.3,0,0.7-0.2,0.7-0.7V8.1c0-0.4-0.2-0.8-0.7-0.8H7c-0.4,0-0.8,0.3-0.8,0.8v8.5C6.2,17,6.5,17.3,7,17.3z
		 M7.6,8.8H14v7H7.6V8.8z"/>
	<path d="M1.1,19.7H20c0.3,0,0.7-0.3,0.7-0.7c0-0.3-0.2-0.7-0.7-0.7H1.1c-0.4,0-0.8,0.3-0.8,0.7C0.3,19.4,0.7,19.7,1.1,19.7z"/>
</g>
</svg>
