<?xml version="1.0" encoding="utf-8"?>
<!-- Generator: Adobe Illustrator 22.1.0, SVG Export Plug-In . SVG Version: 6.00 Build 0)  -->
<svg version="1.1" id="Capa_1" xmlns="http://www.w3.org/2000/svg" xmlns:xlink="http://www.w3.org/1999/xlink" x="0px" y="0px"
	 viewBox="0 0 10 95" style="enable-background:new 0 0 10 95;" xml:space="preserve">
<style type="text/css">
	.st0{fill:#34454f;}
	.st1{fill:#E6E6E6;}
</style>
<g>
	<path class="st0" d="M4,9c-4,3.2-4,6-4,10c0,1.2,0,5.5,0,12c0,11.1,0,15.2,0,33c0,6.5,0,10.8,0,12c0,4,0,6.8,4,10c5,4,6,8,6,8v-8
		V64V31V9V1C10,1,9,5,4,9z"/>
	<path class="st1" d="M5.1,47.9c0.1,0.1,0.2,0.1,0.3,0l0,0l2.4-2.4c0.1-0.1,0.1-0.2,0-0.3l0,0l-2.4-2.4c-0.1-0.1-0.2-0.1-0.3,0
		c-0.1,0.1-0.1,0.2,0,0.3l2.3,2.3l-2.3,2.3C5,47.7,5,47.9,5.1,47.9L5.1,47.9z"/>
</g>
</svg>
