<?xml version="1.0" encoding="utf-8"?>
<!-- Generator: Adobe Illustrator 23.0.3, SVG Export Plug-In . SVG Version: 6.00 Build 0)  -->
<svg version="1.1" id="Layer_1" xmlns="http://www.w3.org/2000/svg" xmlns:xlink="http://www.w3.org/1999/xlink" x="0px" y="0px"
	 viewBox="0 0 20.8 20" style="enable-background:new 0 0 20.8 20;" xml:space="preserve">
<path d="M18,6.4h-3V1.3c0-0.5-0.4-0.9-0.9-0.9H2.7c-0.5,0-0.9,0.4-0.9,0.9v11.6c0,0.5,0.4,0.9,0.9,0.9h3v5.1c0,0.5,0.4,0.9,0.9,0.9
	h11.6c0.5,0,0.9-0.4,0.9-0.9V7.2C19.1,6.7,18.5,6.4,18,6.4z M5.6,7.2v4.7h-2V2.2h9.8v4.1h-7C6,6.4,5.6,6.7,5.6,7.2z M17.1,17.8H7.4
	V8.1h9.8v9.7H17.1z"/>
</svg>
