<?xml version="1.0" encoding="utf-8"?>
<!-- Generator: Adobe Illustrator 21.0.0, SVG Export Plug-In . SVG Version: 6.00 Build 0)  -->
<svg version="1.1" id="Layer_1" xmlns="http://www.w3.org/2000/svg" xmlns:xlink="http://www.w3.org/1999/xlink" x="0px" y="0px"
	 viewBox="0 0 20.8 20" style="enable-background:new 0 0 20.8 20;" xml:space="preserve">
<g>
	<path d="M18.6,14.8H9.5v-1.5c0-0.4-0.3-0.7-0.7-0.7H4.8c-0.4,0-0.7,0.3-0.7,0.7v1.5H2.4c-0.4,0-0.7,0.3-0.7,0.7
		c0,0.4,0.3,0.7,0.7,0.7h1.7v1.2c0,0.4,0.3,0.7,0.7,0.7h4.1c0.4,0,0.7-0.3,0.7-0.7v-1.2h9.1c0.4,0,0.7-0.3,0.7-0.7
		C19.3,15.1,19,14.8,18.6,14.8z M8.2,13.9v2.7H5.5v-2.7H8.2z"/>
	<path d="M2.4,5.1h1.7v1.2c0,0.4,0.3,0.7,0.7,0.7h4.1c0.4,0,0.7-0.3,0.7-0.7V5.1h9.1c0.4,0,0.7-0.3,0.7-0.7c0-0.4-0.3-0.7-0.7-0.7
		H9.5V2.2c0-0.4-0.3-0.7-0.7-0.7H4.8c-0.4,0-0.7,0.3-0.7,0.7v1.5H2.4C2,3.7,1.7,4,1.7,4.4C1.7,4.8,2,5.1,2.4,5.1z M5.5,5.6V2.8h2.7
		v2.7H5.5z"/>
	<path d="M18.6,9.2h-1.7V7.7c0-0.4-0.3-0.7-0.7-0.7h-4.1c-0.4,0-0.7,0.3-0.7,0.7v1.5H2.4C2,9.2,1.7,9.5,1.7,9.9s0.3,0.7,0.7,0.7h9.1
		v1.2c0,0.4,0.3,0.7,0.7,0.7h4.1c0.4,0,0.7-0.3,0.7-0.7v-1.2h1.7c0.4,0,0.7-0.3,0.7-0.7S19,9.2,18.6,9.2z M15.6,8.4v2.7h-2.7V8.4
		H15.6z"/>
</g>
</svg>
