<?xml version="1.0" encoding="utf-8"?>
<!-- Generator: Adobe Illustrator 23.0.3, SVG Export Plug-In . SVG Version: 6.00 Build 0)  -->
<svg version="1.1" id="Layer_1" xmlns="http://www.w3.org/2000/svg" xmlns:xlink="http://www.w3.org/1999/xlink" x="0px" y="0px"
	 viewBox="0 0 20.8 20" style="enable-background:new 0 0 20.8 20;" xml:space="preserve">
<g>
	<path d="M12.8,0.6H4.8V2h7.3v9.7H2.4V4.4H0.9v8.1c0,0.4,0.3,0.7,0.7,0.7h11.2c0.4,0,0.7-0.3,0.7-0.7V1.3
		C13.5,0.9,13.2,0.6,12.8,0.6z"/>
	<rect x="0.5" y="0.2" width="2.3" height="2.3"/>
	<rect x="17.9" y="0.2" width="2.3" height="2.3"/>
	<rect x="0.5" y="17.5" width="2.3" height="2.3"/>
	<rect x="18.1" y="17.6" width="2.3" height="2.3"/>
	<g>
		<path d="M8.7,12.5H7.3v6.4c0,0.4,0.3,0.7,0.7,0.7h8.1v-1.4H8.7V12.5z"/>
		<path d="M19.2,6.8h-6.4v1.4h5.7v7.3h1.4V7.5C19.9,7.2,19.6,6.8,19.2,6.8z"/>
	</g>
</g>
</svg>
