<?xml version="1.0" encoding="utf-8"?>
<!-- Generator: Adobe Illustrator 21.0.0, SVG Export Plug-In . SVG Version: 6.00 Build 0)  -->
<svg version="1.1" id="Layer_1" xmlns="http://www.w3.org/2000/svg" xmlns:xlink="http://www.w3.org/1999/xlink" x="0px" y="0px"
	 viewBox="0 0 13 13" style="enable-background:new 0 0 13 13;" xml:space="preserve">
<style type="text/css">
	.st0{fill:#FFFFFF;stroke:#FFFFFF;stroke-width:0.25;stroke-miterlimit:10;}
</style>
<g>
	<g>
		<path class="st0" d="M2.4,10.8C1.2,9.7,0.6,8.2,0.6,6.6c0-0.2,0.2-0.4,0.4-0.4s0.4,0.2,0.4,0.4C1.5,7.9,2,9.2,3,10.2
			c1,0.9,2.2,1.5,3.6,1.5c1.3,0,2.6-0.5,3.5-1.5c0.9-0.9,1.5-2.2,1.5-3.6c0-1.3-0.5-2.6-1.5-3.5C9.1,2.1,7.9,1.6,6.5,1.6
			c-0.8,0-1.6,0.2-2.3,0.6C3.7,2.4,3.3,2.7,3,3.1h0.9c0.2,0,0.4,0.2,0.4,0.4S4.1,4,3.9,4H2C1.8,4,1.6,3.8,1.6,3.5V1.7
			c0-0.2,0.2-0.4,0.4-0.4s0.4,0.2,0.4,0.4v0.6C2.9,2,3.3,1.6,3.8,1.4c0.9-0.4,1.8-0.7,2.7-0.7c1.6,0,3.1,0.6,4.2,1.7
			c1.1,1.1,1.7,2.6,1.7,4.2c0,1.6-0.6,3.1-1.7,4.2c-1.1,1.1-2.6,1.7-4.2,1.7C5,12.5,3.5,11.9,2.4,10.8z"/>
	</g>
</g>
</svg>
