<?xml version="1.0" encoding="UTF-8"?>
<svg width="17px" height="20px" viewBox="0 0 17 20" version="1.1" xmlns="http://www.w3.org/2000/svg" xmlns:xlink="http://www.w3.org/1999/xlink">
    <!-- Generator: Sketch 46.2 (44496) - http://www.bohemiancoding.com/sketch -->
    <title>iconUserOption</title>
    <desc>Created with Sketch.</desc>
    <defs>
        <polygon id="path-1" points="0 19.7038 0 0 16.438 0 16.438 19.7038"></polygon>
    </defs>
    <g id="Page-1" stroke="none" stroke-width="1" fill="none" fill-rule="evenodd">
        <g id="iconUserOption">
            <mask id="mask-2" fill="white">
                <use xlink:href="#path-1"></use>
            </mask>
            <g id="Clip-2"></g>
            <path d="M8.2203,0.9628 C10.3393,0.9628 11.7633,2.5118 11.7633,4.8158 C11.7633,7.2808 10.1733,9.2868 8.2203,9.2868 C6.2663,9.2868 4.6773,7.2808 4.6773,4.8158 C4.6773,2.5108 6.1013,0.9628 8.2203,0.9628 M8.2203,10.2488 C10.7043,10.2488 12.7263,7.8118 12.7263,4.8158 C12.7263,1.9808 10.8723,-0.0002 8.2203,-0.0002 C5.5673,-0.0002 3.7143,1.9798 3.7143,4.8158 C3.7143,7.8118 5.7363,10.2488 8.2203,10.2488 M16.3993,17.5828 C16.0163,14.0818 12.9583,11.9918 8.2203,11.9918 C3.5863,11.9918 0.7063,13.8048 0.1123,17.0968 C0.0323,17.5408 -0.0007,18.4098 -0.0007,18.7758 C-0.0007,19.0418 0.2153,19.2578 0.4813,19.2578 C0.7463,19.2578 0.9623,19.0418 0.9623,18.7758 C0.9623,18.3728 0.9993,17.6028 1.0593,17.2668 C1.7373,13.5148 5.8363,12.9548 8.2203,12.9548 C10.2363,12.9548 14.9753,13.4158 15.4423,17.6868 C15.4503,17.7858 15.4653,18.4198 15.4753,19.2288 C15.4783,19.4918 15.6933,19.7038 15.9563,19.7038 L15.9623,19.7038 C16.2283,19.7008 16.4413,19.4828 16.4383,19.2168 C16.4313,18.6808 16.4173,17.7548 16.3993,17.5828" id="Fill-1" fill="#FFFFFF" mask="url(#mask-2)"></path>
        </g>
    </g>
</svg>