<?xml version="1.0" encoding="utf-8"?>
<!-- Generator: Adobe Illustrator 21.0.0, SVG Export Plug-In . SVG Version: 6.00 Build 0)  -->
<svg version="1.1" id="Layer_1" xmlns="http://www.w3.org/2000/svg" xmlns:xlink="http://www.w3.org/1999/xlink" x="0px" y="0px"
	 viewBox="0 0 13 13" style="enable-background:new 0 0 13 13;" xml:space="preserve">
<style type="text/css">
	.st0{fill:#FFFFFF;stroke:#FFFFFF;stroke-width:0.25;stroke-miterlimit:10;}
</style>
<g>
	<g>
		<path class="st0" d="M6.5,12.5c-1.6,0-3.1-0.6-4.2-1.7C1.3,9.7,0.6,8.2,0.6,6.6c0-1.6,0.6-3.1,1.7-4.2C3.5,1.3,5,0.7,6.5,0.7
			c1,0,1.9,0.2,2.7,0.7c0.5,0.3,0.9,0.6,1.3,0.9V1.7c0-0.2,0.2-0.4,0.4-0.4s0.4,0.2,0.4,0.4v1.8C11.5,3.8,11.3,4,11,4H9.2
			C9,4,8.8,3.8,8.8,3.5S9,3.1,9.2,3.1h0.9C9.8,2.7,9.3,2.4,8.9,2.2C8.2,1.8,7.4,1.6,6.5,1.6C5.2,1.6,3.9,2.1,3,3.1
			C2,4,1.5,5.3,1.5,6.6C1.5,7.9,2,9.2,3,10.2c0.9,0.9,2.2,1.5,3.5,1.5c1.3,0,2.6-0.5,3.6-1.5c0.9-1,1.5-2.2,1.5-3.6
			c0-0.2,0.2-0.4,0.4-0.4c0.2,0,0.4,0.2,0.4,0.4c0,1.6-0.6,3.1-1.7,4.2C9.6,11.9,8.1,12.5,6.5,12.5z"/>
	</g>
</g>
</svg>
