<?xml version="1.0" encoding="utf-8"?>
<!-- Generator: Adobe Illustrator 21.0.0, SVG Export Plug-In . SVG Version: 6.00 Build 0)  -->
<svg version="1.1" id="Layer_1" xmlns="http://www.w3.org/2000/svg" xmlns:xlink="http://www.w3.org/1999/xlink" x="0px" y="0px"
	 viewBox="0 0 24 23" style="enable-background:new 0 0 24 23;" xml:space="preserve">
<style type="text/css">
	.st0{fill:#F2F2F2;}
</style>
<g>
	<path class="st0" d="M12.9,12.1L12.7,12l-0.1,0.1c-1.6,1-3.7,1-5.3,0L7.2,12L7,12.1c-2.3,0.8-3.9,2.9-3.9,5.3v2c0,0.6,0.5,1,1,1
		h11.6c0.6,0,1-0.5,1-1v-2C16.8,15,15.2,12.9,12.9,12.1z M16.1,19.4c0,0.2-0.1,0.3-0.3,0.3H4.2c-0.2,0-0.3-0.1-0.3-0.3v-2
		c0-2,1.3-3.9,3.3-4.6c1.7,1,4,1,5.7,0c2,0.7,3.3,2.5,3.3,4.6V19.4z"/>
	<path class="st0" d="M10,12.4c2.5,0,4.5-2,4.5-4.5V6.7c0-2.5-2-4.5-4.5-4.5c-2.5,0-4.5,2-4.5,4.5v1.2C5.5,10.4,7.5,12.4,10,12.4z
		 M6.2,6.7C6.2,4.6,7.9,3,10,3s3.8,1.7,3.8,3.8v1.2c0,2.1-1.7,3.8-3.8,3.8S6.2,10,6.2,7.9V6.7z"/>
	<path class="st0" d="M18.4,14.3l-0.2-0.1l-0.1,0.1c-0.2,0.1-0.6,0.3-1.1,0.4l-0.1,0l0.3,0.5l0.1,0.1c0.6-0.1,1-0.3,1.1-0.4
		c1.3,0.5,2.2,1.8,2.2,3.1v1.4c0,0.1-0.1,0.1-0.1,0.1h-3l-0.2,0.7h3.2c0.5,0,0.8-0.4,0.8-0.8v-1.4C21.3,16.4,20.1,14.9,18.4,14.3z"
		/>
	<path class="st0" d="M18.9,10.4v0.8c0,1.2-1,2.1-2.7,2.4l0,0.1l0.3,0.6l0.1,0c2.2-0.5,3-1.9,3-3v-0.8c0-1.7-1.4-3.1-3.3-3.2h0
		c-0.3,0-0.7,0-1.1,0.1V8c0.5-0.1,0.9-0.1,1.1-0.1C17.8,7.9,18.9,9,18.9,10.4z"/>
</g>
</svg>
