<?xml version="1.0" encoding="utf-8"?>
<!-- Generator: Adobe Illustrator 21.0.0, SVG Export Plug-In . SVG Version: 6.00 Build 0)  -->
<svg version="1.1" id="Layer_1" xmlns="http://www.w3.org/2000/svg" xmlns:xlink="http://www.w3.org/1999/xlink" x="0px" y="0px"
	 viewBox="0 0 66.2 23.2" style="enable-background:new 0 0 66.2 23.2;" xml:space="preserve">
<style type="text/css">
	.st0{fill:#FFFFFF;}
	.st1{fill:url(#SVGID_1_);}
	.st2{fill:url(#SVGID_2_);}
</style>
<g>
	<path class="st0" d="M26.8,0.6h-8.1v16.5H6.6V14h8.6V8.7H6.6V6h9.1V0.6H0.6v22h18.1h0.1h8.2c6.1,0,12.3-3.4,12.3-11.1
		C39.3,1.6,30.6,0.6,26.8,0.6z M26.6,17h-1.8V6h1.9c2.8,0,6.2,0.9,6.2,5.5C32.9,16.1,29.5,17,26.6,17z M65.6,0.6V6h-5.9v16.5h-6.2V6
		h-5.8v16.5h-6.2v-22l0,0l0,0H65.6z"/>
	
		<linearGradient id="SVGID_1_" gradientUnits="userSpaceOnUse" x1="2195.0308" y1="727.5005" x2="2204.2551" y2="727.5005" gradientTransform="matrix(-1 0 0 -1 2217.5154 747.3299)">
		<stop  offset="0" style="stop-color:#231F20"/>
		<stop  offset="1" style="stop-color:#231F20;stop-opacity:0"/>
	</linearGradient>
	<rect x="9.5" y="17.1" class="st1" width="9.2" height="5.5"/>
	<linearGradient id="SVGID_2_" gradientUnits="userSpaceOnUse" x1="44.1965" y1="3.3037" x2="52.2855" y2="3.3037">
		<stop  offset="0" style="stop-color:#231F20"/>
		<stop  offset="1" style="stop-color:#231F20;stop-opacity:0"/>
	</linearGradient>
	<rect x="47.7" y="0.6" class="st2" width="8.1" height="5.5"/>
</g>
</svg>
