<?xml version="1.0" encoding="utf-8"?>
<!-- Generator: Adobe Illustrator 22.1.0, SVG Export Plug-In . SVG Version: 6.00 Build 0)  -->
<svg version="1.1" id="Capa_1" xmlns="http://www.w3.org/2000/svg" xmlns:xlink="http://www.w3.org/1999/xlink" x="0px" y="0px"
	 viewBox="0 0 13 13" style="enable-background:new 0 0 13 13;" xml:space="preserve">
<style type="text/css">
	.st0{fill:#FBB03B;}
</style>
<path class="st0" d="M11.9,4.3L9,4C8.8,4,8.6,3.9,8.6,3.7L7.3,1C7.1,0.5,6.4,0.5,6.2,1L4.9,3.7C4.9,3.9,4.7,4,4.5,4l-3,0.3
	C1,4.4,0.8,5.1,1.2,5.4l2.2,2c0.1,0.1,0.2,0.3,0.2,0.5L3,10.8c-0.1,0.5,0.5,1,1,0.7L6.5,10C6.7,10,6.8,10,7,10l2.6,1.5
	c0.5,0.3,1.1-0.1,1-0.7L9.9,7.9c0-0.2,0-0.4,0.1-0.5l2.2-2C12.7,5.1,12.5,4.4,11.9,4.3z"/>
</svg>
