<?xml version="1.0" encoding="utf-8"?>
<!-- Generator: Adobe Illustrator 22.1.0, SVG Export Plug-In . SVG Version: 6.00 Build 0)  -->
<svg version="1.1" id="Capa_1" xmlns="http://www.w3.org/2000/svg" xmlns:xlink="http://www.w3.org/1999/xlink" x="0px" y="0px"
	 viewBox="0 0 23 23" style="enable-background:new 0 0 23 23;" xml:space="preserve">
<style type="text/css">
	.st0{fill:#2D2C2C;}
	.st1{fill:#FFFFFF;}
</style>
<g>
	<path class="st0" d="M17.3,22H5.7C3.1,22,1,19.9,1,17.3V5.7C1,3.1,3.1,1,5.7,1h11.6C19.9,1,22,3.1,22,5.7v11.6
		C22,19.9,19.9,22,17.3,22z"/>
	<g transform="translate(0,-952.36218)">
		<path class="st1" d="M10.6,956.8L5,962.1c-0.3,0.3-0.4,0.9-0.1,1.3c0.3,0.3,0.9,0.3,1.3,0l4.1-3.8v10.2c0,0.5,0.4,0.9,0.9,0.9
			c0.5,0,0.9-0.4,0.9-0.9v-10.2l4.1,3.8c0.3,0.3,1,0.4,1.3,0c0.3-0.3,0.3-1-0.1-1.3l-5.5-5.2C11.5,956.6,10.9,956.4,10.6,956.8z"/>
	</g>
</g>
</svg>
