<?xml version="1.0" encoding="utf-8"?>
<!-- Generator: Adobe Illustrator 23.0.3, SVG Export Plug-In . SVG Version: 6.00 Build 0)  -->
<svg version="1.1" id="Layer_1" xmlns="http://www.w3.org/2000/svg" xmlns:xlink="http://www.w3.org/1999/xlink" x="0px" y="0px"
	 viewBox="0 0 20.8 20" style="enable-background:new 0 0 20.8 20;" xml:space="preserve">
<g>
	<path d="M19.3,7h-6.1V0.9c0-0.4-0.4-0.8-0.8-0.8h-11C1,0.1,0.6,0.5,0.6,0.9v11c0,0.4,0.4,0.8,0.8,0.8h6.1v6.1
		c0,0.4,0.4,0.8,0.8,0.8h11c0.4,0,0.8-0.4,0.8-0.8v-11C20.2,7.4,19.8,7,19.3,7z M2.2,11.1V1.7h9.4V7H8.3C7.9,7,7.5,7.4,7.5,7.8v3.3
		H2.2z M11.6,8.6v2.5H9.1V8.6H11.6z M18.5,18H9.1v-5.2h3.3c0.4,0,0.8-0.4,0.8-0.8V8.6h5.2V18z"/>
	<rect x="17.7" y="0.2" width="2.2" height="2.2"/>
	<rect x="0.7" y="17.2" width="2.2" height="2.2"/>
</g>
</svg>
